<svg width="28" height="26" viewBox="0 0 28 26" fill="none" xmlns="http://www.w3.org/2000/svg">
<path d="M2.66962 25.5802C1.97448 25.5802 1.3794 25.3339 0.88438 24.8411C0.389357 24.3484 0.141846 23.756 0.141846 23.0641V7.96733C0.141846 7.2754 0.389357 6.68306 0.88438 6.19032C1.3794 5.69757 1.97448 5.4512 2.66962 5.4512H6.65087L8.98907 2.93507H16.5724V5.4512H10.095L7.78837 7.96733H2.66962V23.0641H22.8918V11.7415H25.4196V23.0641C25.4196 23.756 25.1721 24.3484 24.6771 24.8411C24.1821 25.3339 23.587 25.5802 22.8918 25.5802H2.66962ZM22.8918 7.96733V5.4512H20.3641V2.93507H22.8918V0.418945H25.4196V2.93507H27.9474V5.4512H25.4196V7.96733H22.8918ZM12.7807 21.177C14.3606 21.177 15.7035 20.6266 16.8094 19.5258C17.9153 18.425 18.4682 17.0883 18.4682 15.5157C18.4682 13.9431 17.9153 12.6064 16.8094 11.5056C15.7035 10.4048 14.3606 9.85443 12.7807 9.85443C11.2009 9.85443 9.85799 10.4048 8.75209 11.5056C7.64619 12.6064 7.09324 13.9431 7.09324 15.5157C7.09324 17.0883 7.64619 18.425 8.75209 19.5258C9.85799 20.6266 11.2009 21.177 12.7807 21.177ZM12.7807 18.6609C11.896 18.6609 11.1482 18.3568 10.5373 17.7488C9.92645 17.1407 9.62101 16.3964 9.62101 15.5157C9.62101 14.6351 9.92645 13.8907 10.5373 13.2827C11.1482 12.6746 11.896 12.3706 12.7807 12.3706C13.6655 12.3706 14.4133 12.6746 15.0241 13.2827C15.635 13.8907 15.9405 14.6351 15.9405 15.5157C15.9405 16.3964 15.635 17.1407 15.0241 17.7488C14.4133 18.3568 13.6655 18.6609 12.7807 18.6609Z" fill="black" fill-opacity="0.8"/>
</svg>
