<svg width="5" height="8" viewBox="0 0 5 8" fill="none" xmlns="http://www.w3.org/2000/svg">
<path d="M4.03628 3.62267C4.03628 3.69895 4.0256 3.76933 4.00425 3.8338C3.98288 3.89828 3.9458 3.9614 3.89299 4.02314L1.2344 7.13164C1.17771 7.19793 1.1082 7.23335 1.02587 7.23789C0.943539 7.24244 0.87014 7.20702 0.805671 7.13164C0.741213 7.05627 0.708984 6.97272 0.708984 6.881C0.708984 6.78928 0.741213 6.70573 0.805671 6.63036L3.37804 3.62267L0.805671 0.614977C0.748977 0.548689 0.718687 0.467414 0.714799 0.371151C0.710922 0.274889 0.741213 0.189069 0.805671 0.11369C0.87014 0.0383115 0.941595 0.000622261 1.02004 0.000622257C1.09849 0.000622253 1.16995 0.0383115 1.2344 0.11369L3.89299 3.22219C3.9458 3.28394 3.98288 3.34705 4.00425 3.41153C4.0256 3.476 4.03628 3.54638 4.03628 3.62267Z" fill="#787878"/>
</svg>
