<svg width="5" height="11" viewBox="0 0 5 11" fill="none" xmlns="http://www.w3.org/2000/svg">
<path d="M2.01872e-07 5.49511C2.07674e-07 5.37917 0.0160448 5.27221 0.0481355 5.17422C0.0802409 5.07622 0.13597 4.9803 0.215324 4.88646L4.21044 0.162071C4.29564 0.0613243 4.40009 0.00749707 4.52381 0.00058924C4.64753 -0.00631859 4.75783 0.0475087 4.85471 0.162071C4.95157 0.276633 5 0.403612 5 0.543006C5 0.682401 4.95157 0.809379 4.85471 0.923942L0.989157 5.49511L4.85471 10.0663C4.9399 10.167 4.98542 10.2906 4.99126 10.4369C4.99709 10.5832 4.95157 10.7136 4.85471 10.8282C4.75783 10.9427 4.65045 11 4.53257 11C4.41468 11 4.3073 10.9427 4.21044 10.8282L0.215324 6.10377C0.13597 6.00993 0.0802409 5.91401 0.0481355 5.81601C0.0160448 5.71802 1.96071e-07 5.61106 2.01872e-07 5.49511Z" fill="#1C1C1C"/>
</svg>
