<svg width="14" height="12" viewBox="0 0 14 12" fill="none" xmlns="http://www.w3.org/2000/svg">
<path d="M10.4709 8.43542L8.80837 6.7875L9.63962 5.97083L10.4709 6.7875L12.5271 4.73125L13.3584 5.54792L10.4709 8.43542ZM6.41671 11.25L4.56462 9.5875C3.86462 8.95556 3.26428 8.39167 2.76358 7.89583C2.26289 7.4 1.84969 6.93333 1.524 6.49583C1.1983 6.05833 0.96011 5.63542 0.809416 5.22708C0.658721 4.81875 0.583374 4.39097 0.583374 3.94375C0.583374 3.02986 0.889624 2.2691 1.50212 1.66146C2.11462 1.05382 2.87782 0.75 3.79171 0.75C4.29726 0.75 4.77851 0.856944 5.23546 1.07083C5.6924 1.28472 6.08615 1.58611 6.41671 1.975C6.74726 1.58611 7.14101 1.28472 7.59796 1.07083C8.0549 0.856944 8.53615 0.75 9.04171 0.75C9.82921 0.75 10.4903 0.971181 11.025 1.41354C11.5598 1.8559 11.9243 2.4125 12.1188 3.08333H10.8792C10.7042 2.69444 10.4466 2.40278 10.1063 2.20833C9.76601 2.01389 9.41115 1.91667 9.04171 1.91667C8.54587 1.91667 8.1181 2.05035 7.75837 2.31771C7.39865 2.58507 7.06323 2.9375 6.75212 3.375H6.08129C5.7799 2.9375 5.43719 2.58507 5.05317 2.31771C4.66914 2.05035 4.24865 1.91667 3.79171 1.91667C3.23754 1.91667 2.75872 2.10868 2.35525 2.49271C1.95178 2.87674 1.75004 3.36042 1.75004 3.94375C1.75004 4.26458 1.8181 4.59028 1.95421 4.92083C2.09032 5.25139 2.33337 5.63299 2.68337 6.06562C3.03337 6.49826 3.50976 7.00382 4.11254 7.58229C4.71532 8.16076 5.48337 8.85833 6.41671 9.675C6.66949 9.45139 6.96601 9.19375 7.30629 8.90208C7.64657 8.61042 7.91879 8.36736 8.12296 8.17292L8.95421 9.00417C8.74032 9.19861 8.4681 9.43924 8.13754 9.72604C7.80698 10.0128 7.51532 10.2681 7.26254 10.4917L6.41671 11.25Z" fill="#787878"/>
</svg>
