<svg width="25" height="24" viewBox="0 0 25 24" fill="none" xmlns="http://www.w3.org/2000/svg">
<path d="M12.4785 19.1994C12.8985 19.1994 13.2535 19.0544 13.5435 18.7644C13.8335 18.4744 13.9785 18.1194 13.9785 17.6994C13.9785 17.2794 13.8335 16.9244 13.5435 16.6344C13.2535 16.3444 12.8985 16.1994 12.4785 16.1994C12.0585 16.1994 11.7035 16.3444 11.4135 16.6344C11.1235 16.9244 10.9785 17.2794 10.9785 17.6994C10.9785 18.1194 11.1235 18.4744 11.4135 18.7644C11.7035 19.0544 12.0585 19.1994 12.4785 19.1994ZM11.3985 14.5794H13.6185C13.6185 13.9194 13.6935 13.3994 13.8435 13.0194C13.9935 12.6394 14.4185 12.1194 15.1185 11.4594C15.6385 10.9394 16.0485 10.4444 16.3485 9.97439C16.6485 9.50439 16.7985 8.93939 16.7985 8.27939C16.7985 7.15939 16.3885 6.29939 15.5685 5.69939C14.7485 5.09939 13.7785 4.79939 12.6585 4.79939C11.5185 4.79939 10.5935 5.09939 9.88345 5.69939C9.17345 6.29939 8.67845 7.01939 8.39845 7.85939L10.3785 8.63939C10.4785 8.27939 10.7035 7.88939 11.0535 7.46939C11.4035 7.04939 11.9385 6.83939 12.6585 6.83939C13.2985 6.83939 13.7785 7.01439 14.0985 7.36439C14.4185 7.71439 14.5785 8.09939 14.5785 8.51939C14.5785 8.91939 14.4585 9.29439 14.2185 9.64439C13.9785 9.99439 13.6785 10.3194 13.3185 10.6194C12.4385 11.3994 11.8985 11.9894 11.6985 12.3894C11.4985 12.7894 11.3985 13.5194 11.3985 14.5794ZM12.5385 23.9994C10.8785 23.9994 9.31845 23.6844 7.85845 23.0544C6.39845 22.4244 5.12845 21.5694 4.04845 20.4894C2.96845 19.4094 2.11345 18.1394 1.48345 16.6794C0.853452 15.2194 0.538452 13.6594 0.538452 11.9994C0.538452 10.3394 0.853452 8.77939 1.48345 7.31939C2.11345 5.85939 2.96845 4.58939 4.04845 3.50939C5.12845 2.42939 6.39845 1.57439 7.85845 0.94439C9.31845 0.31439 10.8785 -0.000610352 12.5385 -0.000610352C14.1985 -0.000610352 15.7585 0.31439 17.2185 0.94439C18.6785 1.57439 19.9485 2.42939 21.0285 3.50939C22.1085 4.58939 22.9635 5.85939 23.5935 7.31939C24.2235 8.77939 24.5385 10.3394 24.5385 11.9994C24.5385 13.6594 24.2235 15.2194 23.5935 16.6794C22.9635 18.1394 22.1085 19.4094 21.0285 20.4894C19.9485 21.5694 18.6785 22.4244 17.2185 23.0544C15.7585 23.6844 14.1985 23.9994 12.5385 23.9994ZM12.5385 21.5994C15.2185 21.5994 17.4885 20.6694 19.3485 18.8094C21.2085 16.9494 22.1385 14.6794 22.1385 11.9994C22.1385 9.31939 21.2085 7.04939 19.3485 5.18939C17.4885 3.32939 15.2185 2.39939 12.5385 2.39939C9.85845 2.39939 7.58845 3.32939 5.72845 5.18939C3.86845 7.04939 2.93845 9.31939 2.93845 11.9994C2.93845 14.6794 3.86845 16.9494 5.72845 18.8094C7.58845 20.6694 9.85845 21.5994 12.5385 21.5994Z" fill="#4D4D4D"/>
</svg>
