<svg xmlns="http://www.w3.org/2000/svg" width="18" height="17.87" viewBox="0 0 18 17.87">
  <defs>
    <style>
      .a {
        fill: #333;
      }
    </style>
  </defs>
  <title>Ресурс 1</title>
  <path class="a" d="M3.38,17.87V15.49h8a4.44,4.44,0,0,0,3.08-1.19,3.88,3.88,0,0,0,1.31-3,3.87,3.87,0,0,0-1.31-3,4.44,4.44,0,0,0-3.08-1.19H4.28l2.92,3.1L5.63,11.92,0,6,5.63,0,7.2,1.67,4.28,4.77h7.08a6.55,6.55,0,0,1,4.69,1.87A6.23,6.23,0,0,1,18,11.32,6.24,6.24,0,0,1,16.05,16a6.55,6.55,0,0,1-4.69,1.87Z"/>
</svg>
