<svg xmlns="http://www.w3.org/2000/svg" xmlns:xlink="http://www.w3.org/1999/xlink" width="23.33" height="23.33" viewBox="0 0 23.33 23.33">
  <defs>
    <style>
      .a {
        fill: #d9d9d9;
      }

      .b {
        mask: url(#a);
      }

      .c {
        fill: #1c1b1f;
      }
    </style>
    <mask id="a" x="-2.25" y="-2.33" width="28" height="28" maskUnits="userSpaceOnUse">
      <rect class="a" x="-2.25" y="-2.33" width="28" height="28"/>
    </mask>
  </defs>
  <title>Ресурс 1</title>
  <g class="b">
    <path class="c" d="M11.67,23.33a11.22,11.22,0,0,1-4.55-.92,11.6,11.6,0,0,1-6.2-6.19A11.42,11.42,0,0,1,0,11.67,11.38,11.38,0,0,1,.92,7.12,11.57,11.57,0,0,1,7.12.92,11.38,11.38,0,0,1,11.67,0a11.42,11.42,0,0,1,4.55.92,11.6,11.6,0,0,1,6.19,6.2,11.22,11.22,0,0,1,.92,4.55,11.25,11.25,0,0,1-.92,4.55,11.62,11.62,0,0,1-6.19,6.19A11.25,11.25,0,0,1,11.67,23.33Zm8.1-7H8.6L7.44,17.5H19q.23-.29.42-.57A4.33,4.33,0,0,0,19.77,16.33Zm1.17-3.5H12.13L11,14h9.74c0-.19.08-.38.11-.57S20.9,13.05,20.94,12.83Zm-.23-3.5H15.63L14.47,10.5h6.47l-.12-.6C20.79,9.72,20.75,9.53,20.71,9.33ZM19.05,6,18,7h1.77a3,3,0,0,0-.33-.54C19.31,6.3,19.18,6.12,19.05,6ZM4.29,17.38,17.44,4.29a9.17,9.17,0,0,0-5.77-2A9,9,0,0,0,5.05,5.05a9,9,0,0,0-2.72,6.62,9.11,9.11,0,0,0,2,5.71ZM11.67,21a9.84,9.84,0,0,0,2.39-.29,8.84,8.84,0,0,0,2.16-.88H7.12a8.93,8.93,0,0,0,2.15.88A9.86,9.86,0,0,0,11.67,21Z"/>
  </g>
</svg>
