<svg width="12" height="7" viewBox="0 0 12 7" fill="none" xmlns="http://www.w3.org/2000/svg">
<path d="M5.99997 0.338495C6.12049 0.338495 6.23266 0.357728 6.3365 0.396195C6.44035 0.434661 6.53906 0.500687 6.63265 0.59427L11.1269 5.08849C11.2653 5.22694 11.3362 5.40098 11.3394 5.61059C11.3426 5.82021 11.2718 5.99745 11.1269 6.14232C10.982 6.28719 10.8064 6.35962 10.6 6.35962C10.3936 6.35962 10.2179 6.28719 10.0731 6.14232L5.99997 2.06922L1.92687 6.14232C1.78842 6.28077 1.61439 6.3516 1.40477 6.35482C1.19517 6.35802 1.01794 6.28719 0.873074 6.14232C0.72819 5.99745 0.655748 5.82181 0.655748 5.6154C0.655748 5.409 0.72819 5.23336 0.873073 5.0885L5.3673 0.59427C5.46088 0.500687 5.5596 0.434661 5.66345 0.396195C5.76728 0.357728 5.87946 0.338495 5.99997 0.338495Z" fill="#787878"/>
</svg>
